<svg width="22" height="22" viewBox="0 0 22 22" fill="none" xmlns="http://www.w3.org/2000/svg">
<path fill-rule="evenodd" clip-rule="evenodd" d="M21.1292 9.2125L20.1667 8.70833C19.9833 8.61667 19.8458 8.47917 19.8 8.25C19.5708 7.51667 19.2958 6.78333 18.9292 6.09583C18.8375 5.9125 18.7917 5.72917 18.8833 5.54583L19.25 4.49167C19.3417 4.2625 19.25 3.9875 19.0667 3.80417L17.7375 2.475C17.5542 2.29167 17.2792 2.24583 17.05 2.29167L15.9958 2.65833C15.8125 2.70417 15.6292 2.70417 15.4458 2.6125C14.8042 2.24583 14.0708 1.925 13.3375 1.74167C13.1542 1.69583 12.9708 1.55833 12.8792 1.375L12.375 0.366667C12.2375 0.1375 12.0083 0 11.7792 0H9.9C9.625 0 9.39583 0.1375 9.30417 0.366667L8.8 1.375C8.70833 1.55833 8.57083 1.69583 8.34167 1.74167C7.60833 1.97083 6.875 2.24583 6.23333 2.6125C6.05 2.70417 5.86667 2.75 5.68333 2.65833L4.62917 2.29167C4.4 2.2 4.125 2.29167 3.94167 2.475L2.42917 3.80417C2.24583 3.9875 2.2 4.2625 2.24583 4.49167L2.6125 5.54583C2.65833 5.72917 2.65833 5.9125 2.56667 6.09583C2.2 6.78333 1.87917 7.47083 1.69583 8.25C1.65 8.43333 1.5125 8.61667 1.32917 8.70833L0.366667 9.2125C0.1375 9.35 0 9.57917 0 9.80833V11.6875C0 11.9625 0.1375 12.1917 0.366667 12.2833L1.32917 12.7875C1.5125 12.8792 1.65 13.0167 1.69583 13.2458C1.925 13.9792 2.2 14.7125 2.56667 15.4C2.65833 15.5833 2.70417 15.7667 2.6125 15.95L2.24583 17.0042C2.15417 17.2333 2.24583 17.5083 2.42917 17.6917L3.75833 19.0208C3.94167 19.2042 4.21667 19.25 4.44583 19.2042L5.5 18.8375C5.68333 18.7917 5.86667 18.7917 6.05 18.8833C6.69167 19.25 7.425 19.5708 8.15833 19.7542C8.34167 19.8 8.525 19.9375 8.61667 20.1208L9.12083 21.1292C9.25833 21.3583 9.4875 21.4958 9.71667 21.4958H11.5958C11.8708 21.4958 12.1 21.3583 12.1917 21.1292L12.6958 20.1208C12.7875 19.9375 12.925 19.8 13.1542 19.7542C13.8875 19.525 14.6208 19.25 15.2625 18.8833C15.4458 18.7917 15.6292 18.7458 15.8125 18.8375L16.8667 19.2042C17.0958 19.2958 17.3708 19.2042 17.5542 19.0208L18.8833 17.6917C19.0667 17.5083 19.1125 17.2333 19.0667 17.0042L18.7 15.95C18.6542 15.7667 18.6542 15.5833 18.7458 15.4C19.1125 14.7125 19.4333 14.025 19.6167 13.2458C19.6625 13.0625 19.8 12.8792 19.9833 12.7875L20.9458 12.2833C21.175 12.1458 21.3125 11.9167 21.3125 11.6875V9.80833C21.4958 9.57917 21.3583 9.30417 21.1292 9.2125V9.2125ZM10.725 18.7917C6.27917 18.7917 2.70417 15.2167 2.70417 10.7708C2.70417 6.325 6.27917 2.75 10.725 2.75C15.1708 2.75 18.7458 6.325 18.7458 10.7708C18.7458 15.2167 15.1708 18.7917 10.725 18.7917Z" fill="#262626"/>
</svg>
