<svg width="21" height="22" viewBox="0 0 21 22" fill="none" xmlns="http://www.w3.org/2000/svg">
<path d="M10.9082 1.16969L11.2836 0.839372L11.2835 0.839371L10.9082 1.16969ZM10.5384 1.00003L10.5439 0.500061L10.5439 0.500061L10.5384 1.00003ZM12.7866 3.30429L12.4113 3.63461L12.5606 3.80429H12.7866V3.30429ZM8.19347 3.30429V3.80429H8.41288L8.56144 3.64282L8.19347 3.30429ZM10.1649 1.16147L10.5328 1.5L10.5328 1.5L10.1649 1.16147ZM8.78085 4.14282L8.41288 3.80429L8.41288 3.8043L8.78085 4.14282ZM10.5246 2.24747L10.8999 1.91716L10.5328 1.5L10.1566 1.90894L10.5246 2.24747ZM3.78935 19.8952V20.3952H4.24313L4.28701 19.9436L3.78935 19.8952ZM16.7234 19.8952L16.2257 19.9436L16.2696 20.3952H16.7234V19.8952ZM12.1853 4.13461L11.8099 4.46492L11.8099 4.46492L12.1853 4.13461ZM15.7174 19.8952V20.3952H16.2817L16.2138 19.835L15.7174 19.8952ZM4.79531 19.8952L4.29895 19.835L4.23098 20.3952H4.79531V19.8952ZM11.2835 0.839371C11.0962 0.626527 10.8274 0.503194 10.5439 0.500061L10.5328 1.5L10.5328 1.5L11.2835 0.839371ZM13.162 2.97398L11.2836 0.839372L10.5328 1.5L12.4113 3.63461L13.162 2.97398ZM17.4735 2.80429H12.7866V3.80429H17.4735V2.80429ZM20.4735 5.8043C20.4735 4.14744 19.1304 2.80429 17.4735 2.80429V3.80429C18.5781 3.80429 19.4735 4.69973 19.4735 5.8043H20.4735ZM20.4735 18.3952V5.8043H19.4735V18.3952H20.4735ZM17.4735 21.3952C19.1304 21.3952 20.4735 20.0521 20.4735 18.3952H19.4735C19.4735 19.4998 18.5781 20.3952 17.4735 20.3952V21.3952ZM3.5 21.3952H17.4735V20.3952H3.5V21.3952ZM0.5 18.3952C0.5 20.0521 1.84315 21.3952 3.5 21.3952V20.3952C2.39543 20.3952 1.5 19.4998 1.5 18.3952H0.5ZM0.5 5.8043V18.3952H1.5V5.8043H0.5ZM3.5 2.80429C1.84314 2.80429 0.5 4.14744 0.5 5.8043H1.5C1.5 4.69973 2.39543 3.80429 3.5 3.80429V2.80429ZM8.19347 2.80429H3.5V3.80429H8.19347V2.80429ZM9.79691 0.822943L7.82551 2.96577L8.56144 3.64282L10.5328 1.5L9.79691 0.822943ZM10.5439 0.500061C10.2604 0.496928 9.98887 0.614288 9.7969 0.822944L10.5328 1.5L10.5328 1.5L10.5439 0.500061ZM9.14882 4.48135L10.8925 2.586L10.1566 1.90894L8.41288 3.80429L9.14882 4.48135ZM8.41289 4.80429C8.69256 4.80429 8.95946 4.68717 9.14882 4.48135L8.41288 3.8043L8.41289 3.80429V4.80429ZM3.5 4.80429H8.41289V3.80429H3.5V4.80429ZM2.5 5.8043C2.5 5.25201 2.94772 4.80429 3.5 4.80429V3.80429C2.39543 3.80429 1.5 4.69973 1.5 5.8043H2.5ZM2.5 18.3952V5.8043H1.5V18.3952H2.5ZM3.5 19.3952C2.94772 19.3952 2.5 18.9475 2.5 18.3952H1.5C1.5 19.4998 2.39543 20.3952 3.5 20.3952V19.3952ZM3.78935 19.3952H3.5V20.3952H3.78935V19.3952ZM4.28701 19.9436C4.51364 17.6105 6.48101 15.7866 8.87378 15.7866V14.7866C5.96116 14.7866 3.56761 17.0064 3.29169 19.8469L4.28701 19.9436ZM8.87378 15.7866H11.6389V14.7866H8.87378V15.7866ZM11.6389 15.7866C14.0317 15.7866 15.9991 17.6105 16.2257 19.9436L17.221 19.8469C16.9451 17.0064 14.5516 14.7866 11.6389 14.7866V15.7866ZM17.4735 19.3952H16.7234V20.3952H17.4735V19.3952ZM18.4735 18.3952C18.4735 18.9475 18.0258 19.3952 17.4735 19.3952V20.3952C18.5781 20.3952 19.4735 19.4998 19.4735 18.3952H18.4735ZM18.4735 5.8043V18.3952H19.4735V5.8043H18.4735ZM17.4735 4.80429C18.0258 4.80429 18.4735 5.25201 18.4735 5.8043H19.4735C19.4735 4.69973 18.5781 3.80429 17.4735 3.80429V4.80429ZM12.5606 4.80429H17.4735V3.80429H12.5606V4.80429ZM11.8099 4.46492C11.9998 4.68066 12.2732 4.80429 12.5606 4.80429V3.80429L12.5606 3.80429L11.8099 4.46492ZM10.1492 2.57778L11.8099 4.46492L12.5606 3.80429L10.8999 1.91716L10.1492 2.57778ZM16.2138 19.835C15.937 17.5538 13.9947 15.7866 11.6389 15.7866V16.7866C13.4829 16.7866 15.0044 18.1701 15.221 19.9554L16.2138 19.835ZM11.6389 15.7866H8.87378V16.7866H11.6389V15.7866ZM8.87378 15.7866C6.51801 15.7866 4.57572 17.5538 4.29895 19.835L5.29167 19.9554C5.50827 18.1701 7.02984 16.7866 8.87378 16.7866V15.7866ZM15.7174 19.3952H4.79531V20.3952H15.7174V19.3952ZM12.6274 10.256C12.6274 11.4638 11.6483 12.4429 10.4405 12.4429V13.4429C12.2006 13.4429 13.6274 12.0161 13.6274 10.256H12.6274ZM10.4405 8.06916C11.6483 8.06916 12.6274 9.04825 12.6274 10.256H13.6274C13.6274 8.49597 12.2006 7.06916 10.4405 7.06916V8.06916ZM8.25365 10.256C8.25365 9.04825 9.23274 8.06916 10.4405 8.06916V7.06916C8.68046 7.06916 7.25365 8.49597 7.25365 10.256H8.25365ZM10.4405 12.4429C9.23274 12.4429 8.25365 11.4638 8.25365 10.256H7.25365C7.25365 12.0161 8.68046 13.4429 10.4405 13.4429V12.4429ZM13.6274 10.256C13.6274 12.0161 12.2006 13.4429 10.4405 13.4429V14.4429C12.7529 14.4429 14.6274 12.5684 14.6274 10.256H13.6274ZM10.4405 7.06916C12.2006 7.06916 13.6274 8.49597 13.6274 10.256H14.6274C14.6274 7.94368 12.7529 6.06916 10.4405 6.06916V7.06916ZM7.25365 10.256C7.25365 8.49597 8.68046 7.06916 10.4405 7.06916V6.06916C8.12817 6.06916 6.25365 7.94368 6.25365 10.256H7.25365ZM10.4405 13.4429C8.68046 13.4429 7.25365 12.0161 7.25365 10.256H6.25365C6.25365 12.5684 8.12817 14.4429 10.4405 14.4429V13.4429Z" fill="black"/>
</svg>
